<?xml version="1.0" standalone="no"?>
<!DOCTYPE svg PUBLIC "-//W3C//DTD SVG 20010904//EN"
 "http://www.w3.org/TR/2001/REC-SVG-20010904/DTD/svg10.dtd">
<svg version="1.0" xmlns="http://www.w3.org/2000/svg"
 width="900.000000pt" height="520.000000pt" viewBox="0 0 900.000000 520.000000"
 preserveAspectRatio="xMidYMid meet">

<g transform="translate(0.000000,520.000000) scale(0.100000,-0.100000)"
fill="#000000" stroke="none">
<path fill="#2563eb" d="M4277 5190 c-774 -70 -1480 -491 -1908 -1139 -221 -334 -350 -676
-406 -1078 -20 -145 -23 -497 -5 -633 81 -603 319 -1088 741 -1511 86 -86 166
-161 179 -168 l22 -12 0 236 0 235 -35 0 c-46 0 -85 37 -85 80 0 43 39 80 85
80 33 0 35 2 35 35 0 78 58 150 130 161 31 5 41 12 48 34 16 44 72 80 136 87
49 5 56 9 65 33 11 34 67 78 109 86 46 9 97 -3 131 -32 26 -21 33 -23 52 -13
33 17 104 5 143 -25 l35 -26 21 30 c26 37 88 70 130 70 37 0 90 -21 108 -43
11 -12 19 -13 43 -5 29 10 79 7 109 -6 12 -5 21 4 33 33 58 131 230 134 291 6
l17 -36 31 23 c19 13 51 23 84 26 47 4 54 7 62 32 13 36 67 77 115 85 67 13
154 -34 172 -92 5 -19 14 -23 45 -23 50 0 88 -15 122 -47 26 -25 28 -25 62 -9
92 43 206 -15 222 -114 4 -26 13 -41 29 -48 21 -10 26 -7 44 23 26 44 61 66
114 72 57 6 125 -29 151 -78 15 -28 28 -37 63 -45 30 -7 57 -7 82 -1 102 27
201 -50 201 -158 0 -33 2 -35 35 -35 46 0 85 -37 85 -80 0 -43 -39 -80 -85
-80 l-35 0 0 -235 c0 -226 1 -235 18 -226 36 19 264 245 344 340 168 201 338
491 431 736 68 178 122 399 148 605 17 132 17 475 1 600 -64 475 -220 862
-501 1240 -103 140 -347 386 -486 491 -350 266 -748 434 -1182 499 -158 24
-446 33 -596 20z m-62 -1252 c105 -54 175 -162 197 -301 l12 -77 76 0 76 0 11
68 c34 212 165 342 345 342 43 0 127 -18 297 -64 130 -36 481 -128 781 -206
300 -78 560 -148 577 -155 57 -24 101 -65 128 -118 l25 -51 0 -553 c0 -600 1
-583 -55 -658 -15 -19 -50 -46 -79 -60 l-52 -26 -710 3 -709 3 -68 34 c-81 41
-158 114 -194 184 -99 197 -228 319 -351 334 -121 13 -266 -101 -372 -292 -66
-121 -123 -181 -215 -226 l-70 -34 -699 -3 c-788 -3 -759 -5 -834 71 -73 75
-72 63 -72 666 0 614 -2 599 79 674 54 51 71 57 406 142 312 80 1030 269 1155
305 135 38 237 38 315 -2z"/>
<path fill="#000000" d="M3885 3741 c-174 -60 -477 -170 -484 -177 -2 -2 188 -4 424 -4 l428
0 -6 52 c-8 62 -50 135 -92 159 -61 35 -89 32 -270 -30z"/>
<path fill="#00000" d="M4883 3789 c-67 -19 -133 -119 -133 -201 l0 -28 427 0 c234 0 424 2
422 4 -17 17 -644 237 -671 235 -7 0 -28 -5 -45 -10z"/>
<path fill="#00000" d="M3240 3350 c0 -5 7 -7 15 -4 8 4 15 8 15 10 0 2 -7 4 -15 4 -8 0 -15
-4 -15 -10z"/>
<path d="M4901 3350 c-46 -11 -100 -67 -111 -116 -5 -21 -10 -132 -10 -245 l0
-207 44 -36 c25 -20 58 -49 74 -65 l29 -29 354 354 354 354 -350 -1 c-193 -1
-365 -5 -384 -9z"/>
<path d="M5848 3346 c-7 -8 -195 -198 -418 -421 l-405 -406 25 -42 c13 -23 31
-56 39 -73 l14 -31 471 472 c259 260 480 482 490 494 l19 21 -111 0 c-83 0
-114 -4 -124 -14z"/>
<path d="M5713 2868 c-271 -271 -496 -497 -500 -501 -4 -4 277 -6 623 -5 l630
3 36 25 c73 50 73 45 76 425 4 415 2 435 -46 487 -45 48 -82 57 -222 58 l-105
0 -492 -492z"/>
<path d="M4050 3340 c8 -5 20 -10 25 -10 6 0 3 5 -5 10 -8 5 -19 10 -25 10 -5
0 -3 -5 5 -10z"/>
<path d="M2505 3330 c-3 -5 -1 -10 4 -10 6 0 11 5 11 10 0 6 -2 10 -4 10 -3 0
-8 -4 -11 -10z"/>
<path d="M4110 3333 c8 -3 24 -10 35 -15 20 -9 20 -9 1 6 -11 9 -27 16 -35 15
-14 0 -14 -1 -1 -6z"/>
<path fill="#0000" d="M3195 3320 c-3 -6 1 -7 9 -4 18 7 21 14 7 14 -6 0 -13 -4 -16 -10z"/>
<path d="M2475 3309 c-4 -6 -5 -12 -2 -15 2 -3 7 2 10 11 7 17 1 20 -8 4z"/>
<path d="M4175 3280 c21 -24 26 -25 19 -6 -3 8 -13 17 -22 21 -13 5 -13 2 3
-15z"/>
<path d="M4202 3230 c0 -14 2 -19 5 -12 2 6 2 18 0 25 -3 6 -5 1 -5 -13z"/>
<path d="M2434 2995 c0 -110 2 -156 3 -103 2 53 2 143 0 200 -1 57 -3 13 -3
-97z"/>
<path d="M3065 2850 c-3 -5 -1 -10 4 -10 6 0 11 5 11 10 0 6 -2 10 -4 10 -3 0
-8 -4 -11 -10z"/>
<path d="M4175 2790 c-3 -5 -4 -14 0 -19 3 -5 -5 -17 -17 -25 -12 -9 -18 -16
-13 -16 16 1 79 59 72 66 -4 4 -7 2 -7 -6 0 -10 -3 -10 -14 -1 -10 8 -16 9
-21 1z"/>
<path d="M4101 2704 c0 -11 3 -14 6 -6 3 7 2 16 -1 19 -3 4 -6 -2 -5 -13z"/>
<path d="M4069 2663 c-13 -16 -12 -17 4 -4 9 7 17 15 17 17 0 8 -8 3 -21 -13z"/>
<path d="M4001 2584 c0 -11 3 -14 6 -6 3 7 2 16 -1 19 -3 4 -6 -2 -5 -13z"/>
<path d="M2422 2540 c0 -14 2 -19 5 -12 2 6 2 18 0 25 -3 6 -5 1 -5 -13z"/>
<path d="M2431 2490 c0 -8 4 -24 9 -35 l9 -20 0 20 c0 11 -4 27 -9 35 -9 13
-10 13 -9 0z"/>
<path d="M3887 2403 c-4 -3 -7 -13 -7 -21 0 -18 13 -7 16 13 2 17 1 18 -9 8z"/>
<path d="M5940 551 c0 -7 -4 -10 -8 -7 -5 3 -9 -2 -9 -10 0 -13 2 -13 16 0 8
9 12 19 8 22 -4 4 -7 2 -7 -5z"/>
<path d="M3386 351 c-4 -5 3 -7 14 -4 23 6 26 13 6 13 -8 0 -17 -4 -20 -9z"/>
<path d="M5580 356 c0 -2 7 -7 16 -10 8 -3 12 -2 9 4 -6 10 -25 14 -25 6z"/>
<path d="M4800 111 c0 -5 9 -7 20 -4 11 3 20 7 20 9 0 2 -9 4 -20 4 -11 0 -20
-4 -20 -9z"/>
</g>
</svg>
